{"title":"Star Wars Episode 5 The Empire Strikes Back 1980 -1080p BluRay H","uid":8645746,"size":8163209979,"categoryP":"video","categoryS":"hd___movies","magnet":"?xt=urn:btih:4b38328edce6f14f6c017a6697a47047aa8bfa58&amp;dn=Star+Wars+Episode+5+The+Empire+Strikes+Back+1980+-1080p+BluRay+H&amp;tr=udp%3A%2F%2Ftracker.openbittorrent.com%3A80&amp;tr=udp%3A%2F%2Fopen.demonii.com%3A1337&amp;tr=udp%3A%2F%2Ftracker.coppersurfer.tk%3A6969&amp;tr=udp%3A%2F%2Fexodus.desync.com%3A6969","seeders":2,"leechers":2,"uploader":"100.XY","files":-1,"time":1372981166,"description":"Fleeing the evil Galactic Empire, the Rebels abandon their new base in an assault with the Imperial AT-AT walkers on the ice world of Hoth. Princess Leia, Han Solo, Chewbacca and the droid C-3PO escape in the Millennium Falcon, but are later captured by Darth Vader on Bespin. Meanwhile, Luke Skywalker and the droid R2-D2 follows Obi-Wan Kenobi's posthumous command, and receives Jedi training from Master Yoda on the swamp world of Dagobah. Will Skywalker manage to rescue his friends from the Dark Lord?\n\n* * * MediaInspector for Mac - Version 2.0.1, build 900\n* * * Â©2012 by Diego Massanti\n* * * MediaInfo Lib by Jerome Martinez\n* * * Raw File Report for Star.Wars.Episode.5.The.Empire.Strikes.Back.1980.-1080p BluRay Hardcoded subs-PT [TUGA].mkv\n\nGeneral\nComplete name : /Volumes/My book 2/BluRay Movies/Star Wars Boxset BluRay /Star Wars Episode V - The Empire Strikes Back/Star.Wars.Episode.5.The.Empire.Strikes.Back.1980.-1080p BluRay Hardcoded subs-PT [TUGA].mkv\nFormat : Matroska\nFile size : 7.60 GiB\nDuration : 2h 7mn\nOverall bit rate : 8 546 Kbps\nEncoded date : UTC 2013-06-18 10:57:09\nWriting library : WonderShare Matroska Muxer\n\nVideo\nID : 1\nFormat : AVC\nFormat/Info : Advanced Video Codec\nFormat profile : &lt;a class=&quot;__cf_email__&quot; href=&quot;/cdn-cgi/l/email-protection&quot; data-cfemail=&quot;66240715030a0f0803262a534856&quot;&gt;[email&amp;#160;protected]&lt;/a&gt;&lt;script cf-hash='f9e31' type=&quot;text/javascript&quot;&gt;\n/* &lt;![CDATA[ */!function(){try{var t=&quot;currentScript&quot;in document?document.currentScript:function(){for(var t=document.getElementsByTagName(&quot;script&quot;),e=t.length;e--;)if(t[e].getAttribute(&quot;cf-hash&quot;))return t[e]}();if(t&amp;&amp;t.previousSibling){var e,r,n,i,c=t.previousSibling,a=c.getAttribute(&quot;data-cfemail&quot;);if(a){for(e=&quot;&quot;,r=parseInt(a.substr(0,2),16),n=2;a.length-n;n+=2)i=parseInt(a.substr(n,2),16)^r,e+=String.fromCharCode(i);e=document.createTextNode(e),c.parentNode.replaceChild(e,c)}}}catch(u){}}();/* ]]&gt; */&lt;/script&gt;\nFormat settings, CABAC : No\nFormat settings, ReFrames : 1 frame\nFormat settings, GOP : M=1, N=25\nCodec ID : V_MPEG4/ISO/AVC\nDuration : 2h 7mn\nBit rate : 8 216 Kbps\nWidth : 1 920 pixels\nHeight : 1 080 pixels\nDisplay aspect ratio : 16:9\nFrame rate : 23.976 fps\nOriginal frame rate : 23.000 fps\nColor space : YUV\nChroma subsampling : 4:2:0\nBit depth : 8 bits\nScan type : Progressive\nBits/(Pixel*Frame) : 0.165\nStream size : 7.31 GiB (96%)\n\nAudio\nID : 2\nFormat : AC-3\nFormat/Info : Audio Coding 3\nMode extension : CM (complete main)\nCodec ID : A_AC3\nDuration : 2h 7mn\nBit rate mode : Constant\nBit rate : 160 Kbps\nChannel(s) : 2 channels\nChannel positions : Front: L R\nSampling rate : 44.1 KHz\nBit depth : 16 bits\nCompression mode : Lossy\nDelay relative to video : 4ms\nStream size : 146 MiB (2%)","torrent":{"xt":"urn:btih:4b38328edce6f14f6c017a6697a47047aa8bfa58","amp;dn":"Star+Wars+Episode+5+The+Empire+Strikes+Back+1980+-1080p+BluRay+H","amp;tr":["udp%3A%2F%2Ftracker.openbittorrent.com%3A80","udp%3A%2F%2Fopen.demonii.com%3A1337","udp%3A%2F%2Ftracker.coppersurfer.tk%3A6969","udp%3A%2F%2Fexodus.desync.com%3A6969"],"infoHash":"4b38328edce6f14f6c017a6697a47047aa8bfa58","infoHashBuffer":{"type":"Buffer","data":[75,56,50,142,220,230,241,79,108,1,122,102,151,164,112,71,170,139,250,88]},"announce":[],"urlList":[]}}